<?xml version="1.0" encoding="UTF-8"?>
<svg id="Layer_2" xmlns="http://www.w3.org/2000/svg" viewBox="0 0 541.89 77.87">
  <defs>
    <style>
      .cls-1 {
        fill: #2697b2;
      }
    </style>
  </defs>
  <path class="cls-1" d="M4.04,29.5c5.45-10.33,17.33-15.46,47.06-20.87C95.37.57,130.57.76,140.57.86c42.57.44,75.17.77,119.07,8.87,46.55,8.58,44.67,14.62,74.14,16.52,33.01,2.12,35.79-5.43,104.47-15.25C488.46,3.82,541.89,0,541.89,0c0,0-1.25,61.89-1.26,69.27,0,2.39,0,4.55,0,4.55h-15.65c-98.71,0-218.29.96-218.29.96-157.76,1.27-302.64,3.09-302.66,3.09.01,0-9.1-31.13,0-48.37Z"/>
</svg>