<?xml version="1.0" encoding="UTF-8"?>
<svg id="Layer_1" xmlns="http://www.w3.org/2000/svg" viewBox="0 0 174.5 38.71">
  <defs>
    <style>
      .cls-1 {
        fill: #98d9e9;
      }
    </style>
  </defs>
  <path class="cls-1" d="M119.59.27c23.29.95,34.24,5.07,38.23,6.7,7.91,3.25,16.19,6.64,16.66,12.76.55,7.22-9.97,15.92-20.42,18.18-12.33,2.66-17.46-5.1-37.19-10.5-5.26-1.44-22.99-6.11-43.11-2.85-22.98,3.72-27.45,14.28-48.31,14.15-6.04-.04-20.01-.12-24.2-8.23-3.58-6.94.96-17.83,8.74-22.24,8.72-4.95,15.2,1.85,34.51,1.13,13.13-.49,12.91-3.62,33.02-6.89C96.41-.6,110.93-.08,119.59.27Z"/>
</svg>