<?xml version="1.0" encoding="UTF-8"?>
<svg xmlns="http://www.w3.org/2000/svg" viewBox="0 0 240.38 211.54">
  <defs>
    <style>
      .cls-1 {
        fill: #d3d2d1;
      }

      .cls-2 {
        fill: #fff;
      }

      .cls-3 {
        fill: #a9a5a5;
      }
    </style>
  </defs>
  <g id="Layer_2">
    <path class="cls-1" d="M1.86,147.31c-.23,5.19,2.02,8.16,7.79,18.77,4.04,7.43,4.98,8.34,6.73,9.21,3.38,1.67,6.8.88,11.41-.27,6.6-1.63,8.7-3.6,18.87-8.21,2.93-1.33,6.03-2.59,12.21-5.11,3.82-1.55,9.54-3.84,16.43-6.44,5.4-2.03,9.72-3.59,20.43-7.33,15.11-5.28,22.67-7.93,25.53-8.88,16.23-5.41,22.26-6.92,28.42-12.88,1.83-1.77,4.74-4.64,6.76-9.23,1.54-3.51.88-4.19,3.01-12.95,1.24-5.1,1.79-6.2,2.89-11.34,1.09-5.09,1.63-7.64,1.33-8.66-1.68-5.69-9.56-4.17-17.29-11.79-4.36-4.3-3.23-6.1-8.15-10.27-2-1.7-6.04-4.65-11.69-6.02-5.47-1.33-9.61-.5-17.36,1.06-7.51,1.51-13.01,3.6-17.4,5.3-6.54,2.52-11.23,4.9-16.25,7.46-3.73,1.9-9.75,4.99-17,9.56-11.38,7.17-19.63,14.1-23.73,17.71-1.58,1.39-13.22,11.72-22.67,24.44-1.66,2.23-4.52,6.25-6.84,11.82-2.04,4.9-2.76,8.84-3.02,10.51-.15.94-.35,2.24-.41,3.53Z"/>
  </g>
  <g id="Layer_6">
    <path class="cls-1" d="M159.57,78.73c7.92-5.05,14.85-7.39,19.74-8.59,11.9-2.92,16.86-.36,25.07-5.45,5.62-3.48,5.46-6.02,11.66-8.63,5.5-2.31,9.82-2.07,11.71-5.63,1.4-2.63.04-4.64,1.91-6.45,1.99-1.92,4.32-.42,6.97-2.4,1.87-1.39,3.3-4.05,2.83-6.1-.88-3.92-8.5-5.08-10.9-5.45-11.67-1.78-18.52,3.87-35.89,10.63-7.54,2.93-19.27,6.89-42.73,14.81-7.78,2.63-14.25,4.76-14.55,8.52-.38,4.77,9.44,9.12,12.06,10.22"/>
  </g>
  <g id="Layer_3">
    <path class="cls-3" d="M3.32,138.98c1.51-6.02,4.05-10.36,5.72-12.99,9.81-15.41,25.76-28.97,25.76-28.97,5.05-4.3,17.83-14.76,37.11-25.4,6.14-3.39,21.5-11.53,40.72-15.31,5.9-1.16,13.56-2.18,19.94,1.88,3.96,2.52,3.17,4.28,7.91,8.77,9.15,8.67,16.78,6.54,20.01,13.35,1.84,3.88,1.35,8.75-.56,12.06-3.44,5.97-11.32,6.67-19.45,8.34,0,0-2.75.57-32.16,11.51-33.53,12.48-70.56,44.19-78.61,55.98-.77,1.12-3.09,4.73-6.75,5.16-3.61.43-6.66-2.43-10.32-5.96-4.47-4.3-9.08-8.74-10.37-16.06-.85-4.82.12-8.69,1.04-12.36Z"/>
  </g>
  <g id="Layer_7">
    <ellipse class="cls-2" cx="220.64" cy="37.4" rx="8.03" ry="3.55" transform="translate(.97 80.11) rotate(-20.62)"/>
  </g>
  <g id="Layer_8">
    <path class="cls-1" d="M137.17,101.75c5.37-1.84,9.53-4,12.44-5.72,5.21-3.08,12.23-7.22,11.95-12-.11-1.84-1.3-3.62-1.06-3.74.24-.12,1.73,1.62,2.38,3.45,2.14,6-4.53,13.3-5.36,14.19-3.85,4.11-8.43,5.83-11.29,6.59"/>
  </g>
</svg>