<?xml version="1.0" encoding="UTF-8"?>
<svg id="Layer_1" xmlns="http://www.w3.org/2000/svg" viewBox="0 0 398.52 88.45">
  <defs>
    <style>
      .cls-1 {
        fill: #2697b2;
        opacity: .36;
      }
    </style>
  </defs>
  <path class="cls-1" d="M273.1.62c53.19,2.19,78.2,11.62,87.32,15.37,18.07,7.43,36.98,15.21,38.05,29.19,1.27,16.52-22.76,36.4-46.62,41.54-28.15,6.07-39.89-11.69-84.94-24.04-12.01-3.29-52.5-13.99-98.46-6.56-52.49,8.49-62.67,32.62-110.32,32.32-13.8-.09-45.71-.29-55.29-18.85-8.19-15.87,2.19-40.78,19.93-50.85,19.91-11.3,34.72,4.25,78.82,2.61,29.98-1.11,29.48-8.26,75.4-15.72C220.17-1.38,253.33-.19,273.1.62Z"/>
</svg>